<svg width="229" height="185" viewBox="0 0 229 185" fill="none" xmlns="http://www.w3.org/2000/svg">
<path d="M44.8408 142.221C44.8408 148.766 42.9598 151.023 3.53511 172.918L3.53511 184.279H57.2551V173.143H24.376C53.4932 157.72 56.8789 152.152 56.8789 141.619V140.942C56.8789 129.656 48.9789 122.583 30.4703 122.583C11.4351 122.583 2.70749 131.612 2.70749 146.359V147.036H14.7456V146.208C14.7456 137.857 20.238 133.418 30.7713 133.418C40.7027 133.418 44.8408 136.503 44.8408 141.543V142.221Z" fill="#5E2572"/>
<path d="M87.5131 122.583C68.0264 122.583 58.9979 133.643 58.9979 150.422V156.742C58.9979 173.595 68.0264 184.655 87.5131 184.655C107 184.655 116.028 173.595 116.028 156.742V150.422C116.028 133.643 107 122.583 87.5131 122.583ZM87.5131 133.869C98.874 133.869 103.99 137.857 103.99 151.174V156.064C103.99 169.382 98.874 173.444 87.5131 173.444C76.1522 173.444 71.036 169.382 71.036 156.064V151.174C71.036 137.857 76.1522 133.869 87.5131 133.869Z" fill="#5E2572"/>
<path d="M159.608 142.221C159.608 148.766 157.727 151.023 118.302 172.918V184.279H172.022V173.143H139.143C168.261 157.72 171.646 152.152 171.646 141.619V140.942C171.646 129.656 163.746 122.583 145.238 122.583C126.202 122.583 117.475 131.612 117.475 146.359V147.036H129.513V146.208C129.513 137.857 135.005 133.418 145.539 133.418C155.47 133.418 159.608 136.503 159.608 141.543V142.221Z" fill="#5E2572"/>
<path d="M215.743 142.221C215.743 148.766 213.862 151.023 174.437 172.918V184.279H228.157V173.143H195.278C224.395 157.72 227.781 152.152 227.781 141.619V140.942C227.781 129.656 219.881 122.583 201.372 122.583C182.337 122.583 173.61 131.612 173.61 146.359V147.036H185.648V146.208C185.648 137.857 191.14 133.418 201.673 133.418C211.605 133.418 215.743 136.503 215.743 141.543V142.221Z" fill="#5E2572"/>
<path d="M43.2782 59.8305C43.2782 66.4711 41.37 68.761 1.37391 90.9725L1.37391 102.498H55.8724V91.2015H22.5169C52.056 75.5542 55.4908 69.9059 55.4908 59.2199V58.533C55.4908 47.0837 47.4763 39.9088 28.6995 39.9088C9.3884 39.9088 0.534302 49.0682 0.534302 64.0286L0.534302 64.7156H12.7469V63.8759C12.7469 55.4035 18.3188 50.9001 29.0048 50.9001C39.0802 50.9001 43.2782 54.0296 43.2782 59.1436V59.8305Z" fill="#5E2572"/>
<path d="M85.3746 39.9088C67.6664 39.9088 58.5833 45.5571 58.5833 55.4798V56.5484C58.5833 61.7387 61.0258 66.7764 70.7958 69.1426C60.8731 70.3639 56.4461 76.3938 56.4461 83.7213V85.2479C56.4461 96.4682 66.5978 102.88 85.3746 102.88C104.151 102.88 114.379 96.4682 114.379 85.2479L114.379 83.7213C114.379 76.3938 109.952 70.3639 100.03 69.1426C109.723 66.7764 112.166 61.7387 112.166 56.5484V55.4798C112.166 45.5571 103.083 39.9088 85.3746 39.9088ZM85.3746 65.7078C73.849 65.7078 70.7958 63.418 70.7958 58.533V57.7697C70.7958 52.503 75.2992 50.2132 85.3746 50.2132C95.4499 50.2132 99.9533 52.503 99.9533 57.7697V58.533C99.9533 63.418 96.9765 65.7078 85.3746 65.7078ZM85.3746 92.5754C74.0779 92.5754 68.6586 90.1329 68.6586 84.2556L68.6586 83.2634C68.6586 77.9204 72.3987 75.4779 85.3746 75.4779C98.3504 75.4779 102.167 77.9204 102.167 83.2634L102.167 84.2556C102.167 90.1329 96.6712 92.5754 85.3746 92.5754Z" fill="#5E2572"/>
<path d="M16.5327 34.893H21.6293L32.6511 8.25003L32.6511 34.893H37.6234L37.6234 1.12313L30.2479 1.12313L19.4332 28.2219L7.91417 1.12313L0.497223 1.12313L0.497223 34.893H5.42804L5.42804 8.29146L16.5327 34.893Z" fill="#5E2572"/>
<path d="M64.346 34.893L69.484 34.893L56.5561 1.12313L51.0867 1.12313L38.2002 34.893H43.2968L46.6116 25.9844L61.0312 25.9844L64.346 34.893ZM48.4348 21.0121L53.8214 6.55118L59.208 21.0121L48.4348 21.0121Z" fill="#5E2572"/>
<path d="M82.7362 35.1002C89.3244 35.1002 93.2608 32.6141 95.084 29.1335L95.9541 34.893H98.896V16.9515H82.5705V21.8823H93.9238V22.0066C93.9238 29.1335 89.2416 30.1279 82.7362 30.1279C74.9878 30.1279 71.4243 27.4346 71.4243 18.8575V17.0758C71.4243 8.66438 74.9464 5.88821 82.5705 5.88821C90.236 5.88821 93.7995 8.54007 93.9652 13.9681V14.2582L98.896 14.2582V13.8852C98.7717 6.01252 93.758 0.915955 82.6948 0.915955C72.3359 0.915955 66.4521 6.17826 66.4521 16.4542V19.3133C66.4521 28.8849 70.9685 35.1002 82.7362 35.1002Z" fill="#5E2572"/>
<path d="M168.517 35.1002C175.105 35.1002 179.041 32.6141 180.865 29.1335L181.735 34.893H184.677V16.9515H168.351V21.8823H179.704V22.0066C179.704 29.1335 175.022 30.1279 168.517 30.1279C160.768 30.1279 157.205 27.4346 157.205 18.8575V17.0758C157.205 8.66438 160.727 5.88821 168.351 5.88821C176.017 5.88821 179.58 8.54007 179.746 13.9681V14.2582L184.677 14.2582V13.8852C184.552 6.01252 179.539 0.915955 168.475 0.915955C158.117 0.915955 152.233 6.17826 152.233 16.4542V19.3133C152.233 28.8849 156.749 35.1002 168.517 35.1002Z" fill="#5E2572"/>
<path d="M190.009 34.893H194.981V1.12313L190.009 1.12313V34.893Z" fill="#5E2572"/>
<path d="M223.512 1.12313V19.852C223.512 27.1032 220.735 30.1279 214.396 30.1279C208.056 30.1279 205.28 27.1032 205.28 19.852V1.12313L200.308 1.12313V19.6033C200.308 30.6666 204.493 35.1002 214.396 35.1002C224.299 35.1002 228.484 30.6666 228.484 19.6033V1.12313L223.512 1.12313Z" fill="#5E2572"/>
<path d="M171.887 105.769V43.5617H165.857L142.959 53.4081V65.1626L159.675 58.1404V105.769H171.887Z" fill="#5E2572"/>
<path d="M216.406 63.1018C216.406 69.7424 214.498 72.0322 174.501 94.2438V105.769L229 105.769V94.4728L195.644 94.4728C225.184 78.8254 228.618 73.1771 228.618 62.4911V61.8042C228.618 50.3549 220.604 43.1801 201.827 43.1801C182.516 43.1801 173.662 52.3395 173.662 67.2998V67.9868H185.874V67.1472C185.874 58.6747 191.446 54.1713 202.132 54.1713C212.208 54.1713 216.406 57.3008 216.406 62.4148V63.1018Z" fill="#5E2572"/>
<path fill-rule="evenodd" clip-rule="evenodd" d="M228.985 114.493L0 114.493L0 112.312L228.985 112.312V114.493Z" fill="#5E2572"/>
<path fill-rule="evenodd" clip-rule="evenodd" d="M128.668 113.402L128.668 -9.53264e-08L130.849 0L130.849 113.402L128.668 113.402Z" fill="#5E2572"/>
</svg>
