<svg width="151" height="103" viewBox="0 0 151 103" fill="none" xmlns="http://www.w3.org/2000/svg">
<g clip-path="url(#clip0_13_11)">
<path d="M0.435486 34.7269C0.509012 36.4443 1.97388 37.8115 3.77244 37.8115H6.7757V32.3937H6.77004V23.8122C6.77004 28.6764 9.46223 31.5237 15.3217 31.5237C22.9232 31.5237 26.0904 27.2923 26.0904 19.4226V16.1403C26.0904 8.46845 22.9232 4.07886 15.3217 4.07886C9.46223 4.07886 6.77004 7.0448 6.77004 11.7508V4.27094H0.435486V32.3937V34.5913C0.435486 34.5913 0.435486 34.6196 0.435486 34.6308V34.7212V34.7269ZM6.77004 13.2083C6.77004 10.361 8.67041 9.33281 13.1838 9.33281C17.6972 9.33281 19.7559 11.0728 19.7559 17.242V18.3097C19.7559 24.5184 17.618 26.2584 13.1838 26.2584C8.74959 26.2584 6.77004 25.2302 6.77004 22.3434V13.2083Z" fill="#9C1006"/>
<path d="M33.6919 14.5924C33.6919 10.4006 40.0661 10.5983 43.4313 11.4683V4.23143C42.9958 4.11279 42.5603 4.07324 41.8477 4.07324C36.3445 4.07324 33.6919 7.19736 33.6919 13.0106V4.27097H27.3574V32.7496H33.6919V14.5924Z" fill="#8B0F06"/>
<path d="M43.1146 19.9311C43.1146 28.0776 46.9153 32.9417 55.942 32.9417C64.9688 32.9417 68.7695 28.0776 68.7695 19.9311V17.0838C68.7695 8.93738 64.9292 4.07324 55.942 4.07324C46.9549 4.07324 43.1146 8.93738 43.1146 17.0838V19.9311ZM49.4491 17.6375C49.4491 11.8638 51.4287 9.96557 55.942 9.96557C60.4554 9.96557 62.435 11.8638 62.435 17.6375V19.3775C62.435 25.1512 60.4554 27.0494 55.942 27.0494C51.4287 27.0494 49.4491 25.1512 49.4491 19.3775V17.6375Z" fill="#8B0F06"/>
<path d="M76.4502 0H70.1156V3.3614H76.4502V0Z" fill="#8B0F06"/>
<path d="M68.4924 34.727H69.9969C74.0351 34.727 76.4502 32.5124 76.4502 28.1623V4.271H70.1156V28.3149C70.1156 29.1849 69.6801 29.6594 68.9279 29.6594H68.4924V34.7213V34.727Z" fill="#8B0F06"/>
<path d="M90.9801 32.9473C99.0962 32.9473 103.293 29.3091 103.293 23.7331V23.0213H96.9583V23.219C96.9583 26.5014 93.9494 27.2923 90.9405 27.2923C86.0312 27.2923 84.2496 25.7895 84.0121 20.6486H103.293V14.7958C103.293 8.07299 99.1358 4.07886 90.6237 4.07886C81.5178 4.07886 77.6379 8.86391 77.6379 17.0894V19.8972C77.6379 28.1623 81.4386 32.9473 90.9801 32.9473ZM90.5446 9.73391C94.86 9.73391 96.9187 10.9598 96.9583 15.1122H84.1308C84.6455 11.0389 86.7042 9.73391 90.5446 9.73391Z" fill="#8B0F06"/>
<path d="M117.189 32.9473C125.82 32.9473 130.017 28.8741 130.017 21.9931V21.1627H123.682V21.4395C123.682 25.7104 121.584 27.0155 117.071 27.0155C112.557 27.0155 110.696 25.1963 110.696 19.3831V17.6431C110.696 11.8298 112.676 10.0107 117.071 10.0107C121.465 10.0107 123.682 11.3157 123.682 15.5867V15.8635H130.017V15.0331C130.017 8.15208 125.82 4.07886 117.189 4.07886C108.558 4.07886 104.362 8.86391 104.362 17.0894V19.9367C104.362 28.1623 108.163 32.9473 117.189 32.9473Z" fill="#8B0F06"/>
<path d="M134.174 32.7496H140.508V9.29328H145.559V4.23141H140.508V1.0282H134.174V4.23141H129.542V9.29328H134.174V32.7496Z" fill="#8B0F06"/>
<path d="M12.4316 39.0996C4.07787 39.0996 0.118774 42.1446 0.118774 47.6811V47.7997C0.118774 53.5338 2.57342 55.2739 10.5312 56.0252C17.6972 56.658 18.5682 57.4093 18.5682 59.7425V59.8612C18.5682 61.9967 16.9845 62.8667 12.6691 62.8667C8.3537 62.8667 6.29497 61.5221 6.29497 57.7653V57.528H0.118774V57.8048C0.118774 65.0812 3.9591 67.9681 12.6295 67.9681C20.7061 67.9681 24.7444 65.4767 24.7444 59.7425V59.5053C24.7444 53.5338 22.2897 51.2006 13.3422 50.5679C7.28474 50.1329 6.29497 49.5397 6.29497 47.5229V47.4438C6.29497 45.3083 7.83902 44.2406 12.3524 44.2406C16.8658 44.2406 18.5682 45.4665 18.5682 48.8674V49.1047H24.7444V48.7883C24.7444 42.3424 20.9436 39.0996 12.4316 39.0996Z" fill="#9C1006"/>
<path d="M32.0291 58.833C32.0291 63.6971 34.7213 66.5444 40.5807 66.5444C48.1822 66.5444 51.3495 62.313 51.3495 54.4434V51.1611C51.3495 43.4892 48.1822 39.0996 40.5807 39.0996C34.7213 39.0996 32.0291 42.0655 32.0291 46.7715V39.2973H25.6945V69.7533H32.0291V58.8386V58.833ZM32.0291 48.2347C32.0291 45.3874 33.9294 44.3592 38.4428 44.3592C42.9562 44.3592 45.0149 46.0992 45.0149 52.2684V53.3361C45.0149 59.5448 42.877 61.2848 38.4428 61.2848C34.0086 61.2848 32.0291 60.2566 32.0291 57.3698V48.2347Z" fill="#8B0F06"/>
<path d="M69.9573 67.776H76.2918V49.0312C76.2918 41.913 72.8078 39.1052 64.6521 39.1052C57.011 39.1052 52.9727 41.9921 52.9727 47.3308V48.3194H59.3073V47.6471C59.3073 45.7489 60.4158 44.8394 64.3353 44.8394C68.8091 44.8394 69.9573 45.9467 69.9573 49.3476V50.0594C62.6725 51.5622 52.0621 50.6131 52.0621 59.9459V60.3018C52.0621 65.3241 55.3482 67.9737 61.1285 67.9737C66.9088 67.9737 69.9573 65.3241 69.9573 61.33V67.776ZM62.7913 63.3864C59.7428 63.3864 58.3967 62.0814 58.3967 59.9063V59.5109C58.3967 56.0704 61.8807 56.189 69.9573 55.0027V60.1832C69.9573 62.3582 67.7797 63.3864 62.7913 63.3864Z" fill="#8B0F06"/>
<path d="M103.135 56.1834H96.7999V56.4602C96.7999 60.7312 94.7016 62.0362 90.1883 62.0362C85.6749 62.0362 83.8141 60.2171 83.8141 54.4039V52.6638C83.8141 46.8506 85.7937 45.0315 90.1883 45.0315C94.5829 45.0315 96.7999 46.3365 96.7999 50.6075V50.8843H103.135V50.0538C103.135 43.1728 98.9379 39.0996 90.307 39.0996C81.6762 39.0996 77.4796 43.8847 77.4796 52.1102V54.9575C77.4796 63.183 81.2803 67.9681 90.307 67.9681C99.3338 67.9681 103.135 63.8949 103.135 57.0139V56.1834Z" fill="#8B0F06"/>
<path d="M117.466 67.9737C125.583 67.9737 129.779 64.3355 129.779 58.7595V58.0477H123.445V58.2454C123.445 61.5277 120.436 62.3186 117.427 62.3186C112.518 62.3186 110.736 60.8159 110.498 55.6749H129.779V49.8222C129.779 43.0994 125.622 39.1052 117.11 39.1052C108.004 39.1052 104.124 43.8903 104.124 52.1158V54.9236C104.124 63.1886 107.925 67.9737 117.466 67.9737ZM117.031 44.7603C121.346 44.7603 123.405 45.9862 123.445 50.1385H110.617C111.132 46.0653 113.191 44.7603 117.031 44.7603Z" fill="#8B0F06"/>
<path d="M12.5899 74.1259C4.94887 74.1259 0.910593 77.0127 0.910593 82.3514V83.34H7.24515V82.6678C7.24515 80.7696 8.3537 79.86 12.2732 79.86C16.747 79.86 17.8951 80.9673 17.8951 84.3682V85.0801C10.6104 86.5828 0 85.6337 0 94.9665V95.3224C0 100.345 3.28605 102.994 9.06633 102.994C14.8466 102.994 17.8951 100.345 17.8951 96.3506V102.797H24.2297V84.0519C24.2297 76.9336 20.7457 74.1259 12.5899 74.1259ZM17.8951 95.2038C17.8951 97.3788 15.7176 98.407 10.7292 98.407C7.68065 98.407 6.33456 97.102 6.33456 94.927V94.5315C6.33456 91.091 9.81856 91.2097 17.8951 90.0233V95.2038Z" fill="#9C1006"/>
<path d="M41.8081 74.284C41.3726 74.1654 40.9371 74.1259 40.2244 74.1259C34.7213 74.1259 32.0687 77.25 32.0687 83.0632V74.3236H25.7341V102.802H32.0687V84.6507C32.0687 80.4588 38.4428 80.6566 41.8081 81.5266V74.2897V74.284Z" fill="#8B0F06"/>
<path d="M54.5564 74.1259C45.5296 74.1259 41.7289 78.9109 41.7289 87.1364V89.9837C41.7289 98.2093 45.5296 102.994 54.5564 102.994C63.5831 102.994 67.3838 98.9211 67.3838 92.0401V91.2097H61.0493V91.4865C61.0493 95.7574 58.951 97.0624 54.4376 97.0624C49.9242 97.0624 48.0634 95.2433 48.0634 89.4301V87.6901C48.0634 81.8768 50.043 80.0577 54.4376 80.0577C58.8322 80.0577 61.0493 81.3627 61.0493 85.6337V85.9105H67.3838V85.0801C67.3838 78.1991 63.1872 74.1259 54.5564 74.1259Z" fill="#8B0F06"/>
<path d="M83.339 74.1259C77.5587 74.1259 74.7874 77.25 74.7874 83.1028V70.5668H68.4528V102.802H74.7874V84.6903C74.7874 81.2893 76.9253 80.103 80.4489 80.103C84.6455 80.103 86.3479 81.7244 86.3479 85.2044V102.802H92.6825V84.1762C92.6825 77.2557 89.3965 74.1315 83.339 74.1315V74.1259Z" fill="#8B0F06"/>
<path d="M100.284 74.3236H93.9494V102.802H100.284V74.3236Z" fill="#8B0F06"/>
<path d="M100.284 70.0526H93.9494V73.414H100.284V70.0526Z" fill="#8B0F06"/>
<path d="M116.437 74.1259C110.657 74.1259 107.885 77.25 107.885 83.1028V74.3236H101.551V102.802H107.885V84.6902C107.885 81.2893 110.023 80.1029 113.547 80.1029C117.744 80.1029 119.446 81.7243 119.446 85.2043V102.802H125.781V84.1761C125.781 77.2556 122.494 74.1315 116.437 74.1315V74.1259Z" fill="#8B0F06"/>
<path d="M137.064 71.0808H130.729V74.284H126.097V79.3459H130.729V102.802H137.064V79.3459H143.715V74.284H137.064V71.0808Z" fill="#8B0F06"/>
<path d="M151 70.0526H144.665V73.414H151V70.0526Z" fill="#8B0F06"/>
<path d="M151 74.3236H144.665V102.802H151V74.3236Z" fill="#8B0F06"/>
</g>
<defs>
<clipPath id="clip0_13_11">
<rect width="151" height="103" fill="white"/>
</clipPath>
</defs>
</svg>
