<svg width="18" height="18" viewBox="0 0 18 18" fill="none" xmlns="http://www.w3.org/2000/svg">
<path fill-rule="evenodd" clip-rule="evenodd" d="M9.00002 0C6.55575 0 6.24926 0.0103605 5.28931 0.0541601C4.33137 0.0978521 3.67712 0.250008 3.10466 0.472506C2.51283 0.702472 2.01092 1.01021 1.51055 1.51055C1.01021 2.01092 0.702472 2.51283 0.472506 3.10466C0.250008 3.67712 0.0978521 4.33137 0.0541601 5.28931C0.0103605 6.24926 0 6.55575 0 9.00002C0 11.4443 0.0103605 11.7507 0.0541601 12.7107C0.0978521 13.6686 0.250008 14.3229 0.472506 14.8953C0.702472 15.4872 1.01021 15.9891 1.51055 16.4895C2.01092 16.9898 2.51283 17.2975 3.10466 17.5275C3.67712 17.75 4.33137 17.9021 5.28931 17.9458C6.24926 17.9896 6.55575 18 9.00002 18C11.4443 18 11.7507 17.9896 12.7107 17.9458C13.6686 17.9021 14.3229 17.75 14.8953 17.5275C15.4872 17.2975 15.9891 16.9898 16.4895 16.4895C16.9898 15.9891 17.2975 15.4872 17.5275 14.8953C17.75 14.3229 17.9021 13.6686 17.9458 12.7107C17.9896 11.7507 18 11.4443 18 9.00002C18 6.55575 17.9896 6.24926 17.9458 5.28931C17.9021 4.33137 17.75 3.67712 17.5275 3.10466C17.2975 2.51283 16.9898 2.01092 16.4895 1.51055C15.9891 1.01021 15.4872 0.702472 14.8953 0.472506C14.3229 0.250008 13.6686 0.0978521 12.7107 0.0541601C11.7507 0.0103605 11.4443 0 9.00002 0ZM9.00001 1.62158C11.4031 1.62158 11.6878 1.63076 12.6368 1.67406C13.5143 1.71408 13.9908 1.86069 14.3079 1.98395C14.728 2.14721 15.0278 2.34224 15.3428 2.65719C15.6577 2.97211 15.8527 3.27192 16.016 3.69202C16.1393 4.00916 16.2859 4.4857 16.3259 5.36319C16.3692 6.3122 16.3784 6.59687 16.3784 8.99998C16.3784 11.4031 16.3692 11.6877 16.3259 12.6367C16.2859 13.5142 16.1393 13.9908 16.016 14.3079C15.8527 14.728 15.6577 15.0278 15.3428 15.3427C15.0278 15.6577 14.728 15.8527 14.3079 16.016C13.9908 16.1392 13.5143 16.2859 12.6368 16.3259C11.6879 16.3692 11.4033 16.3783 9.00001 16.3783C6.59672 16.3783 6.31213 16.3692 5.36322 16.3259C4.48573 16.2859 4.00919 16.1392 3.69205 16.016C3.27195 15.8527 2.97215 15.6577 2.65722 15.3427C2.3423 15.0278 2.14724 14.728 1.98398 14.3079C1.86072 13.9908 1.71411 13.5142 1.67409 12.6367C1.63079 11.6877 1.62161 11.4031 1.62161 8.99998C1.62161 6.59687 1.63079 6.3122 1.67409 5.36319C1.71411 4.4857 1.86072 4.00916 1.98398 3.69202C2.14724 3.27192 2.34227 2.97211 2.65722 2.65719C2.97215 2.34224 3.27195 2.14721 3.69205 1.98395C4.00919 1.86069 4.48573 1.71408 5.36322 1.67406C6.31224 1.63076 6.5969 1.62158 9.00001 1.62158ZM4.37839 9.00006C4.37839 6.44757 6.44754 4.37842 9.00002 4.37842C11.5525 4.37842 13.6216 6.44757 13.6216 9.00006C13.6216 11.5525 11.5525 13.6217 9.00002 13.6217C6.44754 13.6217 4.37839 11.5525 4.37839 9.00006ZM9.00002 12C7.34314 12 6 10.6569 6 9.00002C6 7.34314 7.34314 6 9.00002 6C10.6569 6 12 7.34314 12 9.00002C12 10.6569 10.6569 12 9.00002 12ZM13.8042 5.27573C14.4007 5.27573 14.8842 4.79222 14.8842 4.19574C14.8842 3.59927 14.4007 3.11572 13.8042 3.11572C13.2078 3.11572 12.7242 3.59927 12.7242 4.19574C12.7242 4.79222 13.2078 5.27573 13.8042 5.27573Z" fill="#9C1006"/>
</svg>
