<svg width="155" height="73" viewBox="0 0 155 73" fill="none" xmlns="http://www.w3.org/2000/svg">
<g clip-path="url(#clip0_1_67)">
<path d="M29.9538 55.9655C45.2507 55.9655 51.6237 47.4787 51.6237 31.6926V25.1086C51.6237 9.72141 45.2507 0.918243 29.9538 0.918243C18.1657 0.918243 12.7459 6.86497 12.7459 16.3054V1.31255H0V58.4414V62.4212C0 67.726 4.31924 72.0313 9.65152 72.0313H12.7505V58.4414V40.5004C12.7505 50.2572 18.1657 55.9655 29.9584 55.9655H29.9538ZM12.7459 19.2398C12.7459 13.5269 16.5678 11.4637 25.653 11.4637C34.7381 11.4637 38.8778 14.9529 38.8778 27.3277V29.4689C38.8778 41.9217 34.577 45.4109 25.653 45.4109C16.729 45.4109 12.7459 43.3477 12.7459 37.5568V19.2353V19.2398Z" fill="black"/>
<path d="M79.3442 0.918243C62.5369 0.918243 54.5707 7.02544 54.5707 18.1303V18.3687C54.5707 29.8724 59.5116 33.3616 75.5223 34.87C89.9397 36.1401 91.6941 37.644 91.6941 42.3252V42.5636C91.6941 46.846 88.5076 48.5929 79.8231 48.5929C71.1386 48.5929 66.9989 45.8969 66.9989 38.3592V37.8824H54.5707V38.4372C54.5707 53.0312 62.2975 58.822 79.7448 58.822C95.9949 58.822 104.122 53.8244 104.122 42.3252V41.8484C104.122 29.8724 99.1814 25.1911 81.1769 23.9211C68.9882 23.05 66.9989 21.8579 66.9989 17.8139V17.6534C66.9989 13.3711 70.1071 11.2299 79.1877 11.2299C88.2682 11.2299 91.6941 13.6874 91.6941 20.5099V20.9867H104.122V20.354C104.122 7.42433 96.4738 0.918243 79.3488 0.918243L79.3442 0.918243Z" fill="black"/>
<path d="M142.194 58.4277H154.94V20.8262C154.94 6.5486 147.932 0.918243 131.52 0.918243C116.145 0.918243 108.018 6.70908 108.018 17.415V19.4003H120.764V18.0523C120.764 14.2468 122.992 12.422 130.88 12.422C139.883 12.422 142.194 14.6411 142.194 21.4636V22.8895C127.537 25.9018 106.185 23.999 106.185 42.7195V43.4348C106.185 53.508 112.798 58.822 124.429 58.822C136.061 58.822 142.194 53.508 142.194 45.498V58.4277ZM127.777 49.6245C121.643 49.6245 118.936 47.0065 118.936 42.6462V41.853C118.936 34.9526 125.944 35.191 142.199 32.8114V43.201C142.199 47.5659 137.82 49.6245 127.781 49.6245H127.777Z" fill="#9C1006"/>
<path d="M21.1633 64.0534H18.0183V72.0313H19.1971V69.3308H21.1633C23.1802 69.3308 24.0735 68.4183 24.0735 67.0199V66.3643C24.0735 64.9659 23.1802 64.0534 21.1633 64.0534ZM22.8947 66.7265C22.8947 67.8131 22.3422 68.157 21.1357 68.157H19.1971V65.2318H21.1357C22.3422 65.2318 22.8947 65.5757 22.8947 66.6623V66.7311V66.7265Z" fill="black"/>
<path d="M30.7274 66.3551V66.1901C30.7274 64.6908 30.1887 64.058 28.1304 64.058H24.8978V72.0359H26.0766V68.4642H27.9554L29.5578 72.0359H30.8471L29.1756 68.4046C30.1703 68.1983 30.7274 67.483 30.7274 66.3597V66.3551ZM26.0766 67.4005V65.2272H28.1304C29.2217 65.2272 29.544 65.461 29.544 66.2451V66.3826C29.544 67.1667 29.2171 67.4005 28.1304 67.4005H26.0766Z" fill="black"/>
<path d="M35.2999 64.0076C32.6476 64.0076 31.4365 65.5849 31.4365 67.7352V68.3496C31.4365 70.5045 32.643 72.0772 35.2999 72.0772C37.9568 72.0772 39.1633 70.5 39.1633 68.3496V67.7352C39.1633 65.5803 37.9522 64.0076 35.2999 64.0076ZM37.9845 68.2441C37.9845 70.2707 37.1372 70.908 35.2999 70.908C33.4626 70.908 32.6153 70.2707 32.6153 68.2441V67.8407C32.6153 65.8141 33.4626 65.1768 35.2999 65.1768C37.1372 65.1768 37.9845 65.8141 37.9845 67.8407V68.2441Z" fill="black"/>
<path d="M41.2768 69.152C41.2768 70.5045 40.7933 70.853 39.7711 70.853H39.2784V72.0268H39.9461C41.5577 72.0268 42.451 71.096 42.451 69.1887V64.0489H41.2722V69.1474L41.2768 69.152Z" fill="black"/>
<path d="M43.2799 72.0313H48.3451V70.8575H44.4633V68.4H48.2254V67.2262H44.4633V65.2272H48.3451V64.0534H43.2799V72.0313Z" fill="black"/>
<path d="M52.9637 64.0076C50.1824 64.0076 49.0036 65.5619 49.0036 67.7352V68.3496C49.0036 70.5229 50.1824 72.0772 52.9637 72.0772C55.4226 72.0772 56.6981 70.8255 56.6981 68.8952V68.8081H55.5193V68.8769C55.5193 70.3762 54.6168 70.9034 52.867 70.9034C51.0297 70.9034 50.1824 70.2661 50.1824 68.2396V67.8361C50.1824 65.8095 51.0297 65.1722 52.867 65.1722C54.7043 65.1722 55.5193 65.6995 55.5193 67.1988V67.2675H56.6981V67.1804C56.6981 65.2501 55.4226 63.9984 52.9637 63.9984V64.0076Z" fill="black"/>
<path d="M56.8178 65.2272H59.4747V72.0313H60.6536V65.2272H63.3059V64.0534H56.8178V65.2272Z" fill="black"/>
<path d="M71.3458 64.0076C68.9651 64.0076 67.7863 64.9292 67.7863 66.268V66.3964C67.7863 67.7581 68.5323 68.4826 71.4241 68.5972C73.2613 68.6751 73.7264 68.9869 73.7264 69.7893V69.8489C73.7264 70.6512 72.939 70.908 71.3688 70.908C69.7986 70.908 68.9697 70.4266 68.9697 69.1474V69.0969H67.7909V69.1657C67.7909 71.2014 68.8408 72.0818 71.3504 72.0818C73.6988 72.0818 74.9006 71.4765 74.9006 69.8122V69.7434C74.9006 68.2075 74.0856 67.561 71.4102 67.4234C69.4532 67.3271 68.9743 67.0199 68.9743 66.2772V66.2359C68.9743 65.5528 69.6052 65.1768 71.3227 65.1768C73.0403 65.1768 73.7218 65.6857 73.7218 66.7311V66.7999H74.9006V66.7219C74.9006 65.0667 73.7817 64.003 71.3504 64.003L71.3458 64.0076Z" fill="black"/>
<path d="M81.7755 67.0199V66.3643C81.7755 64.9659 80.8822 64.0534 78.8653 64.0534H75.7203V72.0313H76.8991V69.3308H78.8653C80.8822 69.3308 81.7755 68.4183 81.7755 67.0199ZM80.5967 66.7265C80.5967 67.8131 80.0441 68.157 78.8377 68.157H76.8991V65.2318H78.8377C80.0441 65.2318 80.5967 65.5757 80.5967 66.6623V66.7311V66.7265Z" fill="black"/>
<path d="M84.0364 64.0534L80.9789 72.0313H82.1853L82.9727 69.9268H86.394L87.1815 72.0313H88.4017L85.335 64.0534H84.0364ZM83.4056 68.753L84.6857 65.3372L85.9612 68.753H83.4056Z" fill="black"/>
<path d="M92.2328 64.0076C89.4516 64.0076 88.2728 65.5619 88.2728 67.7352V68.3496C88.2728 70.5229 89.4516 72.0772 92.2328 72.0772C94.6918 72.0772 95.9673 70.8255 95.9673 68.8952V68.8081H94.7885V68.8769C94.7885 70.3762 93.8859 70.9034 92.1361 70.9034C90.2988 70.9034 89.4516 70.2661 89.4516 68.2396V67.8361C89.4516 65.8095 90.2988 65.1722 92.1361 65.1722C93.9734 65.1722 94.7885 65.6995 94.7885 67.1988V67.2675H95.9673V67.1804C95.9673 65.2501 94.6918 63.9984 92.2328 63.9984V64.0076Z" fill="black"/>
<path d="M96.7777 72.0313H101.838V70.8575H97.9565V68.4H101.723V67.2262H97.9565V65.2272H101.838V64.0534H96.7777V72.0313Z" fill="black"/>
<path d="M109.275 64.0534L106.217 72.0313H107.424L108.211 69.9268H111.633L112.42 72.0313H113.64L110.573 64.0534H109.275ZM108.644 68.753L109.924 65.3372L111.2 68.753H108.644Z" fill="#9C1006"/>
<path d="M120.197 66.3551V66.1901C120.197 64.6908 119.659 64.058 117.6 64.058H114.368V72.0359H115.547V68.4642H117.425L119.028 72.0359H120.317L118.646 68.4046C119.64 68.1983 120.197 67.483 120.197 66.3597V66.3551ZM115.547 67.4005V65.2272H117.6C118.692 65.2272 119.014 65.461 119.014 66.2451V66.3826C119.014 67.1667 118.687 67.4005 117.6 67.4005H115.547Z" fill="#9C1006"/>
<path d="M124.867 64.0076C122.085 64.0076 120.907 65.5619 120.907 67.7352V68.3496C120.907 70.5229 122.085 72.0772 124.867 72.0772C127.326 72.0772 128.601 70.8255 128.601 68.8952V68.8081H127.422V68.8769C127.422 70.3762 126.52 70.9034 124.77 70.9034C122.933 70.9034 122.085 70.2661 122.085 68.2396V67.8361C122.085 65.8095 122.933 65.1722 124.77 65.1722C126.607 65.1722 127.422 65.6995 127.422 67.1988V67.2675H128.601V67.1804C128.601 65.2501 127.326 63.9984 124.867 63.9984V64.0076Z" fill="#9C1006"/>
<path d="M134.956 67.2262H130.59V64.0534H129.411V72.0313H130.59V68.4H134.956V72.0313H136.134V64.0534H134.956V67.2262Z" fill="#9C1006"/>
<path d="M138.137 64.0534H136.959V72.0313H138.137V64.0534Z" fill="#9C1006"/>
<path d="M144.501 70.1331L140.5 64.0534H138.966V72.0313H140.145V65.6123L144.294 72.0313H145.68V64.0534H144.501V70.1331Z" fill="#9C1006"/>
<path d="M146.504 65.2272H149.161V72.0313H150.34V65.2272H152.992V64.0534H146.504V65.2272Z" fill="#9C1006"/>
<path d="M155 64.0534H153.821V72.0313H155V64.0534Z" fill="#9C1006"/>
</g>
<defs>
<clipPath id="clip0_1_67">
<rect width="155" height="71.1635" fill="white" transform="translate(0 0.918243)"/>
</clipPath>
</defs>
</svg>
