<svg width="227" height="177" viewBox="0 0 227 177" fill="none" xmlns="http://www.w3.org/2000/svg">
<path d="M42.0493 19.6145C42.0493 26.1527 40.1721 28.4073 0.825968 50.2764L0.825968 61.6242L54.4388 61.6242V50.5018L21.6253 50.5018C50.6844 35.0958 54.0634 29.5345 54.0634 19.0133V18.337C54.0634 7.06424 46.1791 0 27.7075 0C8.71021 0 0 9.01818 0 23.7479L0 24.4242L12.0141 24.4242V23.5976C12.0141 15.2558 17.4955 10.8218 28.0078 10.8218C37.9194 10.8218 42.0493 13.903 42.0493 18.9382V19.6145Z" fill="#8B0F06"/>
<path d="M84.6365 0C65.1887 0 56.1781 11.0473 56.1781 27.8061V34.1188C56.1781 50.9527 65.1887 62 84.6365 62C104.084 62 113.095 50.9527 113.095 34.1188V27.8061C113.095 11.0473 104.084 0 84.6365 0ZM84.6365 11.2727C95.9748 11.2727 101.081 15.2558 101.081 28.5576V33.4424C101.081 46.7442 95.9748 50.8024 84.6365 50.8024C73.2982 50.8024 68.1922 46.7442 68.1922 33.4424V28.5576C68.1922 15.2558 73.2982 11.2727 84.6365 11.2727Z" fill="#8B0F06"/>
<path d="M156.588 19.6145C156.588 26.1527 154.711 28.4073 115.364 50.2764V61.6242L168.977 61.6242V50.5018L136.164 50.5018C165.223 35.0958 168.602 29.5345 168.602 19.0133V18.337C168.602 7.06424 160.718 0 142.246 0C123.249 0 114.539 9.01818 114.539 23.7479V24.4242L126.553 24.4242V23.5976C126.553 15.2558 132.034 10.8218 142.546 10.8218C152.458 10.8218 156.588 13.903 156.588 18.9382V19.6145Z" fill="#8B0F06"/>
<path d="M212.61 19.6145C212.61 26.1527 210.733 28.4073 171.387 50.2764V61.6242L225 61.6242V50.5018L192.187 50.5018C221.246 35.0958 224.625 29.5345 224.625 19.0133V18.337C224.625 7.06424 216.74 0 198.269 0C179.271 0 170.561 9.01818 170.561 23.7479V24.4242H182.575V23.5976C182.575 15.2558 188.057 10.8218 198.569 10.8218C208.481 10.8218 212.61 13.903 212.61 18.9382V19.6145Z" fill="#8B0F06"/>
<path d="M26.9169 136C44.6253 136 52.7004 129.11 52.7004 119.338V117.932C52.7004 110.48 47.742 105.488 39.0294 104.785C47.0337 103.801 50.717 99.4424 50.717 93.3261V92.3418C50.717 83.2727 43.492 78 27.3419 78C9.77507 78 1.77085 85.3818 1.77085 97.6145L1.77085 98.2473H13.1043V96.8412C13.1043 90.5139 17.8501 87.4909 26.7752 87.4909C36.1961 87.4909 39.3836 90.1624 39.3836 94.5212V95.5055C39.3836 99.7939 36.6211 101.762 30.4585 101.762H21.8168V110.761H30.8835C38.1086 110.761 41.367 112.87 41.367 117.651V118.565C41.367 123.978 36.9044 126.509 26.3502 126.509C15.9376 126.509 11.3334 123.486 11.3334 116.737L11.3334 115.823H0L0 116.385C0 128.688 8.35839 136 26.9169 136Z" fill="#8B0F06"/>
<path d="M81.154 78C62.808 78 54.308 88.3345 54.308 104.012V109.918C54.308 125.665 62.808 136 81.154 136C99.4999 136 108 125.665 108 109.918V104.012C108 88.3345 99.4999 78 81.154 78ZM81.154 88.5455C91.8499 88.5455 96.6666 92.2715 96.6666 104.715V109.285C96.6666 121.728 91.8499 125.525 81.154 125.525C70.4581 125.525 65.6414 121.728 65.6414 109.285V104.715C65.6414 92.2715 70.4581 88.5455 81.154 88.5455Z" fill="#8B0F06"/>
<path d="M26.0464 176H31.1648L18.2861 142H12.8374L0 176H5.07719L8.37942 167.031H22.7441L26.0464 176ZM10.1957 162.025L15.5618 147.465L20.9279 162.025H10.1957Z" fill="#8B0F06"/>
<path d="M46.3877 164.486C54.8497 164.486 58.606 160.606 58.606 154.64V151.845C58.606 145.88 54.8497 142 46.3877 142H33.1787L33.1787 176H38.1321V164.486H46.3877ZM46.2639 147.006C51.341 147.006 53.6526 148.466 53.6526 153.097V153.389C53.6526 158.02 51.341 159.48 46.2639 159.48H38.1321V147.006H46.2639Z" fill="#8B0F06"/>
<path d="M80.5926 176H86L78.9827 160.523C83.1518 159.647 85.5047 156.601 85.5047 151.804V151.094C85.5047 144.712 83.2344 142 74.6073 142H61.0268L61.0268 176H65.9802V160.773H73.8643L80.5926 176ZM74.6073 147.006C79.1891 147.006 80.5513 148.007 80.5513 151.345V151.929C80.5513 155.266 79.1891 156.267 74.6073 156.267H65.9802V147.006H74.6073Z" fill="#8B0F06"/>
<path d="M144.971 175.794H150.046L161.024 149.295V175.794H165.976V142.206H158.63L147.859 169.159L136.387 142.206H129V175.794H133.911V149.336L144.971 175.794Z" fill="#8B0F06"/>
<path d="M192.59 175.794H197.707L184.832 142.206H179.384L166.55 175.794H171.626L174.928 166.933H189.289L192.59 175.794ZM176.743 161.988L182.108 147.605L187.473 161.988H176.743Z" fill="#8B0F06"/>
<path d="M210.906 176C217.467 176 221.388 173.527 223.203 170.065L224.07 175.794H227V157.949L210.741 157.949V162.853H222.048V162.977C222.048 170.065 217.385 171.055 210.906 171.055C203.189 171.055 199.64 168.376 199.64 159.845V158.073C199.64 149.707 203.147 146.945 210.741 146.945C218.375 146.945 221.924 149.583 222.089 154.982V155.27L227 155.27V154.899C226.876 147.069 221.883 142 210.864 142C200.548 142 194.688 147.234 194.688 157.455V160.298C194.688 169.818 199.186 176 210.906 176Z" fill="#8B0F06"/>
<path d="M144.821 78C126.492 78 118 88.3345 118 104.012V109.918C118 125.665 126.492 136 144.821 136C163.151 136 171.643 125.665 171.643 109.918V104.012C171.643 88.3345 163.151 78 144.821 78ZM144.821 88.5455C155.507 88.5455 160.32 92.2715 160.32 104.715V109.285C160.32 121.728 155.507 125.525 144.821 125.525C134.135 125.525 129.323 121.728 129.323 109.285V104.715C129.323 92.2715 134.135 88.5455 144.821 88.5455Z" fill="#8B0F06"/>
<path d="M200.108 78C183.689 78 175.268 83.2024 175.268 92.3418V93.3261C175.268 98.1067 177.533 102.747 186.591 104.926C177.391 106.051 173.286 111.605 173.286 118.354V119.76C173.286 130.095 182.699 136 200.108 136C217.517 136 227 130.095 227 119.76V118.354C227 111.605 222.895 106.051 213.695 104.926C222.683 102.747 224.948 98.1067 224.948 93.3261V92.3418C224.948 83.2024 216.526 78 200.108 78ZM200.108 101.762C189.422 101.762 186.591 99.6533 186.591 95.1539V94.4509C186.591 89.6 190.766 87.4909 200.108 87.4909C209.449 87.4909 213.625 89.6 213.625 94.4509V95.1539C213.625 99.6533 210.865 101.762 200.108 101.762ZM200.108 126.509C189.634 126.509 184.609 124.259 184.609 118.846V117.932C184.609 113.011 188.077 110.761 200.108 110.761C212.139 110.761 215.677 113.011 215.677 117.932V118.846C215.677 124.259 210.582 126.509 200.108 126.509Z" fill="#8B0F06"/>
<path fill-rule="evenodd" clip-rule="evenodd" d="M225 72H1V70H225V72Z" fill="#8B0F06"/>
<path fill-rule="evenodd" clip-rule="evenodd" d="M112 177L112 72L114 72L114 177L112 177Z" fill="#8B0F06"/>
</svg>
