<svg width="26" height="26" viewBox="0 0 26 26" fill="none" xmlns="http://www.w3.org/2000/svg">
<g filter="url(#filter0_d_12_161)">
<path fill-rule="evenodd" clip-rule="evenodd" d="M20.2037 12.26L17.6637 11.97C17.0537 11.9 16.4537 12.11 16.0237 12.54L14.1837 14.38C11.3537 12.94 9.03367 10.63 7.59367 7.79001L9.44367 5.94001C9.87367 5.51001 10.0837 4.91001 10.0137 4.30001L9.72367 1.78001C9.60367 0.77001 8.75367 0.0100098 7.73367 0.0100098H6.00367C4.87367 0.0100098 3.93367 0.95001 4.00367 2.08001C4.53367 10.62 11.3637 17.44 19.8937 17.97C21.0237 18.04 21.9637 17.1 21.9637 15.97V14.24C21.9737 13.23 21.2137 12.38 20.2037 12.26Z" fill="#9C1006"/>
</g>
<defs>
<filter id="filter0_d_12_161" x="0" y="0.0100098" width="25.9638" height="25.9636" filterUnits="userSpaceOnUse" color-interpolation-filters="sRGB">
<feFlood flood-opacity="0" result="BackgroundImageFix"/>
<feColorMatrix in="SourceAlpha" type="matrix" values="0 0 0 0 0 0 0 0 0 0 0 0 0 0 0 0 0 0 127 0" result="hardAlpha"/>
<feOffset dy="4"/>
<feGaussianBlur stdDeviation="2"/>
<feComposite in2="hardAlpha" operator="out"/>
<feColorMatrix type="matrix" values="0 0 0 0 0 0 0 0 0 0 0 0 0 0 0 0 0 0 0.25 0"/>
<feBlend mode="normal" in2="BackgroundImageFix" result="effect1_dropShadow_12_161"/>
<feBlend mode="normal" in="SourceGraphic" in2="effect1_dropShadow_12_161" result="shape"/>
</filter>
</defs>
</svg>
